<mxfile host="app.diagrams.net" agent="Mozilla/5.0 (Macintosh; Intel Mac OS X 10_15_7) AppleWebKit/537.36 (KHTML, like Gecko) Chrome/128.0.0.0 Safari/537.36" version="24.7.5">
  <diagram id="R2lEEEUBdFMjLlhIrx00" name="Page-1">
    <mxGraphModel dx="1970" dy="1733" grid="1" gridSize="10" guides="1" tooltips="1" connect="1" arrows="1" fold="1" page="1" pageScale="1" pageWidth="850" pageHeight="1100" math="0" shadow="0" extFonts="Permanent Marker^https://fonts.googleapis.com/css?family=Permanent+Marker">
      <root>
        <mxCell id="0" />
        <mxCell id="1" parent="0" />
        <mxCell id="C-vyLk0tnHw3VtMMgP7b-1" value="" style="edgeStyle=entityRelationEdgeStyle;endArrow=ERzeroToMany;startArrow=ERone;endFill=1;startFill=0;fontStyle=1;fontColor=#BBFF00;fontSize=14;" parent="1" source="C-vyLk0tnHw3VtMMgP7b-24" target="C-vyLk0tnHw3VtMMgP7b-6" edge="1">
          <mxGeometry width="100" height="100" relative="1" as="geometry">
            <mxPoint x="370" y="700" as="sourcePoint" />
            <mxPoint x="470" y="600" as="targetPoint" />
          </mxGeometry>
        </mxCell>
        <mxCell id="C-vyLk0tnHw3VtMMgP7b-12" value="" style="edgeStyle=entityRelationEdgeStyle;endArrow=ERzeroToMany;startArrow=ERone;endFill=1;startFill=0;fontStyle=1;fontColor=#BBFF00;fontSize=14;" parent="1" source="C-vyLk0tnHw3VtMMgP7b-3" edge="1">
          <mxGeometry width="100" height="100" relative="1" as="geometry">
            <mxPoint x="430" y="160" as="sourcePoint" />
            <mxPoint x="860" y="165" as="targetPoint" />
          </mxGeometry>
        </mxCell>
        <mxCell id="C-vyLk0tnHw3VtMMgP7b-2" value="Offers" style="shape=table;startSize=30;container=1;collapsible=1;childLayout=tableLayout;fixedRows=1;rowLines=0;fontStyle=1;align=center;resizeLast=1;fontColor=#BBFF00;fontSize=14;" parent="1" vertex="1">
          <mxGeometry x="480" y="100" width="250" height="130" as="geometry" />
        </mxCell>
        <mxCell id="C-vyLk0tnHw3VtMMgP7b-3" value="" style="shape=partialRectangle;collapsible=0;dropTarget=0;pointerEvents=0;fillColor=none;points=[[0,0.5],[1,0.5]];portConstraint=eastwest;top=0;left=0;right=0;bottom=1;fontStyle=1;fontColor=#BBFF00;fontSize=14;" parent="C-vyLk0tnHw3VtMMgP7b-2" vertex="1">
          <mxGeometry y="30" width="250" height="30" as="geometry" />
        </mxCell>
        <mxCell id="C-vyLk0tnHw3VtMMgP7b-4" value="PK" style="shape=partialRectangle;overflow=hidden;connectable=0;fillColor=none;top=0;left=0;bottom=0;right=0;fontStyle=1;fontColor=#BBFF00;fontSize=14;" parent="C-vyLk0tnHw3VtMMgP7b-3" vertex="1">
          <mxGeometry width="30" height="30" as="geometry">
            <mxRectangle width="30" height="30" as="alternateBounds" />
          </mxGeometry>
        </mxCell>
        <mxCell id="C-vyLk0tnHw3VtMMgP7b-5" value="order_idÂ int NOT NULL " style="shape=partialRectangle;overflow=hidden;connectable=0;fillColor=none;top=0;left=0;bottom=0;right=0;align=left;spacingLeft=6;fontStyle=5;fontColor=#BBFF00;fontSize=14;" parent="C-vyLk0tnHw3VtMMgP7b-3" vertex="1">
          <mxGeometry x="30" width="220" height="30" as="geometry">
            <mxRectangle width="220" height="30" as="alternateBounds" />
          </mxGeometry>
        </mxCell>
        <mxCell id="C-vyLk0tnHw3VtMMgP7b-6" value="" style="shape=partialRectangle;collapsible=0;dropTarget=0;pointerEvents=0;fillColor=none;points=[[0,0.5],[1,0.5]];portConstraint=eastwest;top=0;left=0;right=0;bottom=0;fontStyle=1;fontColor=#BBFF00;fontSize=14;" parent="C-vyLk0tnHw3VtMMgP7b-2" vertex="1">
          <mxGeometry y="60" width="250" height="30" as="geometry" />
        </mxCell>
        <mxCell id="C-vyLk0tnHw3VtMMgP7b-7" value="FK1" style="shape=partialRectangle;overflow=hidden;connectable=0;fillColor=none;top=0;left=0;bottom=0;right=0;fontStyle=1;fontColor=#BBFF00;fontSize=14;" parent="C-vyLk0tnHw3VtMMgP7b-6" vertex="1">
          <mxGeometry width="30" height="30" as="geometry">
            <mxRectangle width="30" height="30" as="alternateBounds" />
          </mxGeometry>
        </mxCell>
        <mxCell id="C-vyLk0tnHw3VtMMgP7b-8" value="customer_id int NOT NULL" style="shape=partialRectangle;overflow=hidden;connectable=0;fillColor=none;top=0;left=0;bottom=0;right=0;align=left;spacingLeft=6;fontStyle=1;fontColor=#BBFF00;fontSize=14;" parent="C-vyLk0tnHw3VtMMgP7b-6" vertex="1">
          <mxGeometry x="30" width="220" height="30" as="geometry">
            <mxRectangle width="220" height="30" as="alternateBounds" />
          </mxGeometry>
        </mxCell>
        <mxCell id="C-vyLk0tnHw3VtMMgP7b-9" value="" style="shape=partialRectangle;collapsible=0;dropTarget=0;pointerEvents=0;fillColor=none;points=[[0,0.5],[1,0.5]];portConstraint=eastwest;top=0;left=0;right=0;bottom=0;fontStyle=1;fontColor=#BBFF00;fontSize=14;" parent="C-vyLk0tnHw3VtMMgP7b-2" vertex="1">
          <mxGeometry y="90" width="250" height="30" as="geometry" />
        </mxCell>
        <mxCell id="C-vyLk0tnHw3VtMMgP7b-10" value="" style="shape=partialRectangle;overflow=hidden;connectable=0;fillColor=none;top=0;left=0;bottom=0;right=0;fontStyle=1;fontColor=#BBFF00;fontSize=14;" parent="C-vyLk0tnHw3VtMMgP7b-9" vertex="1">
          <mxGeometry width="30" height="30" as="geometry">
            <mxRectangle width="30" height="30" as="alternateBounds" />
          </mxGeometry>
        </mxCell>
        <mxCell id="C-vyLk0tnHw3VtMMgP7b-11" value="order_date date NOT NULL" style="shape=partialRectangle;overflow=hidden;connectable=0;fillColor=none;top=0;left=0;bottom=0;right=0;align=left;spacingLeft=6;fontStyle=1;fontColor=#BBFF00;fontSize=14;" parent="C-vyLk0tnHw3VtMMgP7b-9" vertex="1">
          <mxGeometry x="30" width="220" height="30" as="geometry">
            <mxRectangle width="220" height="30" as="alternateBounds" />
          </mxGeometry>
        </mxCell>
        <mxCell id="C-vyLk0tnHw3VtMMgP7b-23" value="Places" style="shape=table;startSize=40;container=1;collapsible=1;childLayout=tableLayout;fixedRows=1;rowLines=0;fontStyle=1;align=center;resizeLast=1;fontColor=#BBFF00;fontSize=14;" parent="1" vertex="1">
          <mxGeometry x="-260" y="80" width="550" height="220" as="geometry" />
        </mxCell>
        <mxCell id="C-vyLk0tnHw3VtMMgP7b-24" value="" style="shape=partialRectangle;collapsible=0;dropTarget=0;pointerEvents=0;fillColor=none;points=[[0,0.5],[1,0.5]];portConstraint=eastwest;top=0;left=0;right=0;bottom=1;fontStyle=1;fontColor=#BBFF00;fontSize=14;" parent="C-vyLk0tnHw3VtMMgP7b-23" vertex="1">
          <mxGeometry y="40" width="550" height="30" as="geometry" />
        </mxCell>
        <mxCell id="C-vyLk0tnHw3VtMMgP7b-25" value="PlaceID" style="shape=partialRectangle;overflow=hidden;connectable=0;fillColor=none;top=0;left=0;bottom=0;right=0;fontStyle=1;fontColor=#BBFF00;fontSize=14;" parent="C-vyLk0tnHw3VtMMgP7b-24" vertex="1">
          <mxGeometry width="80" height="30" as="geometry">
            <mxRectangle width="80" height="30" as="alternateBounds" />
          </mxGeometry>
        </mxCell>
        <mxCell id="C-vyLk0tnHw3VtMMgP7b-26" value="Name" style="shape=partialRectangle;overflow=hidden;connectable=0;fillColor=none;top=0;left=0;bottom=0;right=0;align=center;spacingLeft=6;fontStyle=5;fontColor=#BBFF00;fontSize=14;" parent="C-vyLk0tnHw3VtMMgP7b-24" vertex="1">
          <mxGeometry x="80" width="180" height="30" as="geometry">
            <mxRectangle width="180" height="30" as="alternateBounds" />
          </mxGeometry>
        </mxCell>
        <mxCell id="WlO0Pab2XGzUlibOwCj_-27" value="Type" style="shape=partialRectangle;overflow=hidden;connectable=0;fillColor=none;top=0;left=0;bottom=0;right=0;align=center;spacingLeft=6;fontStyle=5;fontColor=#BBFF00;fontSize=14;" vertex="1" parent="C-vyLk0tnHw3VtMMgP7b-24">
          <mxGeometry x="260" width="120" height="30" as="geometry">
            <mxRectangle width="120" height="30" as="alternateBounds" />
          </mxGeometry>
        </mxCell>
        <mxCell id="WlO0Pab2XGzUlibOwCj_-21" value="Location" style="shape=partialRectangle;overflow=hidden;connectable=0;fillColor=none;top=0;left=0;bottom=0;right=0;align=center;spacingLeft=6;fontStyle=5;fontColor=#BBFF00;fontSize=14;" vertex="1" parent="C-vyLk0tnHw3VtMMgP7b-24">
          <mxGeometry x="380" width="170" height="30" as="geometry">
            <mxRectangle width="170" height="30" as="alternateBounds" />
          </mxGeometry>
        </mxCell>
        <mxCell id="C-vyLk0tnHw3VtMMgP7b-27" value="" style="shape=partialRectangle;collapsible=0;dropTarget=0;pointerEvents=0;fillColor=none;points=[[0,0.5],[1,0.5]];portConstraint=eastwest;top=0;left=0;right=0;bottom=0;fontStyle=1;fontColor=#BBFF00;fontSize=14;" parent="C-vyLk0tnHw3VtMMgP7b-23" vertex="1">
          <mxGeometry y="70" width="550" height="30" as="geometry" />
        </mxCell>
        <mxCell id="C-vyLk0tnHw3VtMMgP7b-28" value="PF" style="shape=partialRectangle;overflow=hidden;connectable=0;fillColor=none;top=0;left=0;bottom=0;right=0;fontStyle=1;fontColor=#BBFF00;fontSize=14;" parent="C-vyLk0tnHw3VtMMgP7b-27" vertex="1">
          <mxGeometry width="80" height="30" as="geometry">
            <mxRectangle width="80" height="30" as="alternateBounds" />
          </mxGeometry>
        </mxCell>
        <mxCell id="C-vyLk0tnHw3VtMMgP7b-29" value="Parisian Hotels" style="shape=partialRectangle;overflow=hidden;connectable=0;fillColor=none;top=0;left=0;bottom=0;right=0;align=left;spacingLeft=6;fontStyle=1;fontColor=#BBFF00;fontSize=14;" parent="C-vyLk0tnHw3VtMMgP7b-27" vertex="1">
          <mxGeometry x="80" width="180" height="30" as="geometry">
            <mxRectangle width="180" height="30" as="alternateBounds" />
          </mxGeometry>
        </mxCell>
        <mxCell id="WlO0Pab2XGzUlibOwCj_-28" value="Hotel" style="shape=partialRectangle;overflow=hidden;connectable=0;fillColor=none;top=0;left=0;bottom=0;right=0;align=left;spacingLeft=6;fontStyle=1;fontColor=#BBFF00;fontSize=14;" vertex="1" parent="C-vyLk0tnHw3VtMMgP7b-27">
          <mxGeometry x="260" width="120" height="30" as="geometry">
            <mxRectangle width="120" height="30" as="alternateBounds" />
          </mxGeometry>
        </mxCell>
        <mxCell id="WlO0Pab2XGzUlibOwCj_-22" value="Paris, France" style="shape=partialRectangle;overflow=hidden;connectable=0;fillColor=none;top=0;left=0;bottom=0;right=0;align=left;spacingLeft=6;fontStyle=1;fontColor=#BBFF00;fontSize=14;" vertex="1" parent="C-vyLk0tnHw3VtMMgP7b-27">
          <mxGeometry x="380" width="170" height="30" as="geometry">
            <mxRectangle width="170" height="30" as="alternateBounds" />
          </mxGeometry>
        </mxCell>
        <mxCell id="WlO0Pab2XGzUlibOwCj_-3" style="shape=partialRectangle;collapsible=0;dropTarget=0;pointerEvents=0;fillColor=none;points=[[0,0.5],[1,0.5]];portConstraint=eastwest;top=0;left=0;right=0;bottom=0;fontStyle=1;fontColor=#BBFF00;fontSize=14;" vertex="1" parent="C-vyLk0tnHw3VtMMgP7b-23">
          <mxGeometry y="100" width="550" height="30" as="geometry" />
        </mxCell>
        <mxCell id="WlO0Pab2XGzUlibOwCj_-4" value="NY" style="shape=partialRectangle;overflow=hidden;connectable=0;fillColor=none;top=0;left=0;bottom=0;right=0;fontStyle=1;fontColor=#BBFF00;fontSize=14;" vertex="1" parent="WlO0Pab2XGzUlibOwCj_-3">
          <mxGeometry width="80" height="30" as="geometry">
            <mxRectangle width="80" height="30" as="alternateBounds" />
          </mxGeometry>
        </mxCell>
        <mxCell id="WlO0Pab2XGzUlibOwCj_-5" value="New York Gardens" style="shape=partialRectangle;overflow=hidden;connectable=0;fillColor=none;top=0;left=0;bottom=0;right=0;align=left;spacingLeft=6;fontStyle=1;fontColor=#BBFF00;fontSize=14;" vertex="1" parent="WlO0Pab2XGzUlibOwCj_-3">
          <mxGeometry x="80" width="180" height="30" as="geometry">
            <mxRectangle width="180" height="30" as="alternateBounds" />
          </mxGeometry>
        </mxCell>
        <mxCell id="WlO0Pab2XGzUlibOwCj_-29" value="Garden" style="shape=partialRectangle;overflow=hidden;connectable=0;fillColor=none;top=0;left=0;bottom=0;right=0;align=left;spacingLeft=6;fontStyle=1;fontColor=#BBFF00;fontSize=14;" vertex="1" parent="WlO0Pab2XGzUlibOwCj_-3">
          <mxGeometry x="260" width="120" height="30" as="geometry">
            <mxRectangle width="120" height="30" as="alternateBounds" />
          </mxGeometry>
        </mxCell>
        <mxCell id="WlO0Pab2XGzUlibOwCj_-23" value="Queens, New York" style="shape=partialRectangle;overflow=hidden;connectable=0;fillColor=none;top=0;left=0;bottom=0;right=0;align=left;spacingLeft=6;fontStyle=1;fontColor=#BBFF00;fontSize=14;" vertex="1" parent="WlO0Pab2XGzUlibOwCj_-3">
          <mxGeometry x="380" width="170" height="30" as="geometry">
            <mxRectangle width="170" height="30" as="alternateBounds" />
          </mxGeometry>
        </mxCell>
        <mxCell id="WlO0Pab2XGzUlibOwCj_-6" style="shape=partialRectangle;collapsible=0;dropTarget=0;pointerEvents=0;fillColor=none;points=[[0,0.5],[1,0.5]];portConstraint=eastwest;top=0;left=0;right=0;bottom=0;fontStyle=1;fontColor=#BBFF00;fontSize=14;" vertex="1" parent="C-vyLk0tnHw3VtMMgP7b-23">
          <mxGeometry y="130" width="550" height="30" as="geometry" />
        </mxCell>
        <mxCell id="WlO0Pab2XGzUlibOwCj_-7" value="SE" style="shape=partialRectangle;overflow=hidden;connectable=0;fillColor=none;top=0;left=0;bottom=0;right=0;fontStyle=1;fontColor=#BBFF00;fontSize=14;" vertex="1" parent="WlO0Pab2XGzUlibOwCj_-6">
          <mxGeometry width="80" height="30" as="geometry">
            <mxRectangle width="80" height="30" as="alternateBounds" />
          </mxGeometry>
        </mxCell>
        <mxCell id="WlO0Pab2XGzUlibOwCj_-8" value="Seattle Airport" style="shape=partialRectangle;overflow=hidden;connectable=0;fillColor=none;top=0;left=0;bottom=0;right=0;align=left;spacingLeft=6;fontStyle=1;fontColor=#BBFF00;fontSize=14;" vertex="1" parent="WlO0Pab2XGzUlibOwCj_-6">
          <mxGeometry x="80" width="180" height="30" as="geometry">
            <mxRectangle width="180" height="30" as="alternateBounds" />
          </mxGeometry>
        </mxCell>
        <mxCell id="WlO0Pab2XGzUlibOwCj_-30" value="Airport" style="shape=partialRectangle;overflow=hidden;connectable=0;fillColor=none;top=0;left=0;bottom=0;right=0;align=left;spacingLeft=6;fontStyle=1;fontColor=#BBFF00;fontSize=14;" vertex="1" parent="WlO0Pab2XGzUlibOwCj_-6">
          <mxGeometry x="260" width="120" height="30" as="geometry">
            <mxRectangle width="120" height="30" as="alternateBounds" />
          </mxGeometry>
        </mxCell>
        <mxCell id="WlO0Pab2XGzUlibOwCj_-24" value="Seattle, Washington" style="shape=partialRectangle;overflow=hidden;connectable=0;fillColor=none;top=0;left=0;bottom=0;right=0;align=left;spacingLeft=6;fontStyle=1;fontColor=#BBFF00;fontSize=14;" vertex="1" parent="WlO0Pab2XGzUlibOwCj_-6">
          <mxGeometry x="380" width="170" height="30" as="geometry">
            <mxRectangle width="170" height="30" as="alternateBounds" />
          </mxGeometry>
        </mxCell>
        <mxCell id="WlO0Pab2XGzUlibOwCj_-9" style="shape=partialRectangle;collapsible=0;dropTarget=0;pointerEvents=0;fillColor=none;points=[[0,0.5],[1,0.5]];portConstraint=eastwest;top=0;left=0;right=0;bottom=0;fontStyle=1;fontColor=#BBFF00;fontSize=14;" vertex="1" parent="C-vyLk0tnHw3VtMMgP7b-23">
          <mxGeometry y="160" width="550" height="30" as="geometry" />
        </mxCell>
        <mxCell id="WlO0Pab2XGzUlibOwCj_-10" value="VN" style="shape=partialRectangle;overflow=hidden;connectable=0;fillColor=none;top=0;left=0;bottom=0;right=0;fontStyle=1;fontColor=#BBFF00;fontSize=14;" vertex="1" parent="WlO0Pab2XGzUlibOwCj_-9">
          <mxGeometry width="80" height="30" as="geometry">
            <mxRectangle width="80" height="30" as="alternateBounds" />
          </mxGeometry>
        </mxCell>
        <mxCell id="WlO0Pab2XGzUlibOwCj_-11" value="Vietnam Embassy" style="shape=partialRectangle;overflow=hidden;connectable=0;fillColor=none;top=0;left=0;bottom=0;right=0;align=left;spacingLeft=6;fontStyle=1;fontColor=#BBFF00;fontSize=14;" vertex="1" parent="WlO0Pab2XGzUlibOwCj_-9">
          <mxGeometry x="80" width="180" height="30" as="geometry">
            <mxRectangle width="180" height="30" as="alternateBounds" />
          </mxGeometry>
        </mxCell>
        <mxCell id="WlO0Pab2XGzUlibOwCj_-31" value="Embassy" style="shape=partialRectangle;overflow=hidden;connectable=0;fillColor=none;top=0;left=0;bottom=0;right=0;align=left;spacingLeft=6;fontStyle=1;fontColor=#BBFF00;fontSize=14;" vertex="1" parent="WlO0Pab2XGzUlibOwCj_-9">
          <mxGeometry x="260" width="120" height="30" as="geometry">
            <mxRectangle width="120" height="30" as="alternateBounds" />
          </mxGeometry>
        </mxCell>
        <mxCell id="WlO0Pab2XGzUlibOwCj_-25" value="HCM. Vietnam" style="shape=partialRectangle;overflow=hidden;connectable=0;fillColor=none;top=0;left=0;bottom=0;right=0;align=left;spacingLeft=6;fontStyle=1;fontColor=#BBFF00;fontSize=14;" vertex="1" parent="WlO0Pab2XGzUlibOwCj_-9">
          <mxGeometry x="380" width="170" height="30" as="geometry">
            <mxRectangle width="170" height="30" as="alternateBounds" />
          </mxGeometry>
        </mxCell>
        <mxCell id="WlO0Pab2XGzUlibOwCj_-12" style="shape=partialRectangle;collapsible=0;dropTarget=0;pointerEvents=0;fillColor=none;points=[[0,0.5],[1,0.5]];portConstraint=eastwest;top=0;left=0;right=0;bottom=0;fontStyle=1;fontColor=#BBFF00;fontSize=14;" vertex="1" parent="C-vyLk0tnHw3VtMMgP7b-23">
          <mxGeometry y="190" width="550" height="30" as="geometry" />
        </mxCell>
        <mxCell id="WlO0Pab2XGzUlibOwCj_-13" value="MX" style="shape=partialRectangle;overflow=hidden;connectable=0;fillColor=none;top=0;left=0;bottom=0;right=0;fontStyle=1;fontColor=#BBFF00;fontSize=14;" vertex="1" parent="WlO0Pab2XGzUlibOwCj_-12">
          <mxGeometry width="80" height="30" as="geometry">
            <mxRectangle width="80" height="30" as="alternateBounds" />
          </mxGeometry>
        </mxCell>
        <mxCell id="WlO0Pab2XGzUlibOwCj_-14" value="LosCabos Restaurante" style="shape=partialRectangle;overflow=hidden;connectable=0;fillColor=none;top=0;left=0;bottom=0;right=0;align=left;spacingLeft=6;fontStyle=1;fontColor=#BBFF00;fontSize=14;" vertex="1" parent="WlO0Pab2XGzUlibOwCj_-12">
          <mxGeometry x="80" width="180" height="30" as="geometry">
            <mxRectangle width="180" height="30" as="alternateBounds" />
          </mxGeometry>
        </mxCell>
        <mxCell id="WlO0Pab2XGzUlibOwCj_-32" value="Restaurant" style="shape=partialRectangle;overflow=hidden;connectable=0;fillColor=none;top=0;left=0;bottom=0;right=0;align=left;spacingLeft=6;fontStyle=1;fontColor=#BBFF00;fontSize=14;" vertex="1" parent="WlO0Pab2XGzUlibOwCj_-12">
          <mxGeometry x="260" width="120" height="30" as="geometry">
            <mxRectangle width="120" height="30" as="alternateBounds" />
          </mxGeometry>
        </mxCell>
        <mxCell id="WlO0Pab2XGzUlibOwCj_-26" value="Los Cabos, Mexico" style="shape=partialRectangle;overflow=hidden;connectable=0;fillColor=none;top=0;left=0;bottom=0;right=0;align=left;spacingLeft=6;fontStyle=1;fontColor=#BBFF00;fontSize=14;" vertex="1" parent="WlO0Pab2XGzUlibOwCj_-12">
          <mxGeometry x="380" width="170" height="30" as="geometry">
            <mxRectangle width="170" height="30" as="alternateBounds" />
          </mxGeometry>
        </mxCell>
        <mxCell id="WlO0Pab2XGzUlibOwCj_-33" value="Weather" style="shape=table;startSize=30;container=1;collapsible=1;childLayout=tableLayout;fixedRows=1;rowLines=0;fontStyle=1;align=center;resizeLast=1;fontColor=#BBFF00;fontSize=14;" vertex="1" parent="1">
          <mxGeometry x="370" y="370" width="390" height="220" as="geometry" />
        </mxCell>
        <mxCell id="WlO0Pab2XGzUlibOwCj_-34" value="" style="shape=partialRectangle;collapsible=0;dropTarget=0;pointerEvents=0;fillColor=none;points=[[0,0.5],[1,0.5]];portConstraint=eastwest;top=0;left=0;right=0;bottom=1;fontStyle=1;fontColor=#BBFF00;fontSize=14;" vertex="1" parent="WlO0Pab2XGzUlibOwCj_-33">
          <mxGeometry y="30" width="390" height="30" as="geometry" />
        </mxCell>
        <mxCell id="WlO0Pab2XGzUlibOwCj_-35" value="WeatherID" style="shape=partialRectangle;overflow=hidden;connectable=0;fillColor=none;top=0;left=0;bottom=0;right=0;fontStyle=1;fontColor=#BBFF00;fontSize=14;" vertex="1" parent="WlO0Pab2XGzUlibOwCj_-34">
          <mxGeometry width="80" height="30" as="geometry">
            <mxRectangle width="80" height="30" as="alternateBounds" />
          </mxGeometry>
        </mxCell>
        <mxCell id="WlO0Pab2XGzUlibOwCj_-36" value="Month" style="shape=partialRectangle;overflow=hidden;connectable=0;fillColor=none;top=0;left=0;bottom=0;right=0;align=center;spacingLeft=6;fontStyle=5;fontColor=#BBFF00;fontSize=14;" vertex="1" parent="WlO0Pab2XGzUlibOwCj_-34">
          <mxGeometry x="80" width="100" height="30" as="geometry">
            <mxRectangle width="100" height="30" as="alternateBounds" />
          </mxGeometry>
        </mxCell>
        <mxCell id="WlO0Pab2XGzUlibOwCj_-37" value="AverageTemp" style="shape=partialRectangle;overflow=hidden;connectable=0;fillColor=none;top=0;left=0;bottom=0;right=0;align=center;spacingLeft=6;fontStyle=5;fontColor=#BBFF00;fontSize=14;" vertex="1" parent="WlO0Pab2XGzUlibOwCj_-34">
          <mxGeometry x="180" width="110" height="30" as="geometry">
            <mxRectangle width="110" height="30" as="alternateBounds" />
          </mxGeometry>
        </mxCell>
        <mxCell id="WlO0Pab2XGzUlibOwCj_-38" value="Precipitation" style="shape=partialRectangle;overflow=hidden;connectable=0;fillColor=none;top=0;left=0;bottom=0;right=0;align=center;spacingLeft=6;fontStyle=5;fontColor=#BBFF00;fontSize=14;" vertex="1" parent="WlO0Pab2XGzUlibOwCj_-34">
          <mxGeometry x="290" width="100" height="30" as="geometry">
            <mxRectangle width="100" height="30" as="alternateBounds" />
          </mxGeometry>
        </mxCell>
        <mxCell id="WlO0Pab2XGzUlibOwCj_-39" value="" style="shape=partialRectangle;collapsible=0;dropTarget=0;pointerEvents=0;fillColor=none;points=[[0,0.5],[1,0.5]];portConstraint=eastwest;top=0;left=0;right=0;bottom=0;fontStyle=1;fontColor=#BBFF00;fontSize=14;" vertex="1" parent="WlO0Pab2XGzUlibOwCj_-33">
          <mxGeometry y="60" width="390" height="40" as="geometry" />
        </mxCell>
        <mxCell id="WlO0Pab2XGzUlibOwCj_-40" value="JA" style="shape=partialRectangle;overflow=hidden;connectable=0;fillColor=none;top=0;left=0;bottom=0;right=0;fontStyle=1;fontColor=#BBFF00;fontSize=14;" vertex="1" parent="WlO0Pab2XGzUlibOwCj_-39">
          <mxGeometry width="80" height="40" as="geometry">
            <mxRectangle width="80" height="40" as="alternateBounds" />
          </mxGeometry>
        </mxCell>
        <mxCell id="WlO0Pab2XGzUlibOwCj_-41" value="January" style="shape=partialRectangle;overflow=hidden;connectable=0;fillColor=none;top=0;left=0;bottom=0;right=0;align=left;spacingLeft=6;fontStyle=1;fontColor=#BBFF00;fontSize=14;" vertex="1" parent="WlO0Pab2XGzUlibOwCj_-39">
          <mxGeometry x="80" width="100" height="40" as="geometry">
            <mxRectangle width="100" height="40" as="alternateBounds" />
          </mxGeometry>
        </mxCell>
        <mxCell id="WlO0Pab2XGzUlibOwCj_-42" value="Fahrenheit 85" style="shape=partialRectangle;overflow=hidden;connectable=0;fillColor=none;top=0;left=0;bottom=0;right=0;align=left;spacingLeft=6;fontStyle=1;fontColor=#BBFF00;fontSize=14;" vertex="1" parent="WlO0Pab2XGzUlibOwCj_-39">
          <mxGeometry x="180" width="110" height="40" as="geometry">
            <mxRectangle width="110" height="40" as="alternateBounds" />
          </mxGeometry>
        </mxCell>
        <mxCell id="WlO0Pab2XGzUlibOwCj_-43" value="10%" style="shape=partialRectangle;overflow=hidden;connectable=0;fillColor=none;top=0;left=0;bottom=0;right=0;align=left;spacingLeft=6;fontStyle=1;fontColor=#BBFF00;fontSize=14;" vertex="1" parent="WlO0Pab2XGzUlibOwCj_-39">
          <mxGeometry x="290" width="100" height="40" as="geometry">
            <mxRectangle width="100" height="40" as="alternateBounds" />
          </mxGeometry>
        </mxCell>
        <mxCell id="WlO0Pab2XGzUlibOwCj_-44" style="shape=partialRectangle;collapsible=0;dropTarget=0;pointerEvents=0;fillColor=none;points=[[0,0.5],[1,0.5]];portConstraint=eastwest;top=0;left=0;right=0;bottom=0;fontStyle=1;fontColor=#BBFF00;fontSize=14;" vertex="1" parent="WlO0Pab2XGzUlibOwCj_-33">
          <mxGeometry y="100" width="390" height="30" as="geometry" />
        </mxCell>
        <mxCell id="WlO0Pab2XGzUlibOwCj_-45" value="FE" style="shape=partialRectangle;overflow=hidden;connectable=0;fillColor=none;top=0;left=0;bottom=0;right=0;fontStyle=1;fontColor=#BBFF00;fontSize=14;" vertex="1" parent="WlO0Pab2XGzUlibOwCj_-44">
          <mxGeometry width="80" height="30" as="geometry">
            <mxRectangle width="80" height="30" as="alternateBounds" />
          </mxGeometry>
        </mxCell>
        <mxCell id="WlO0Pab2XGzUlibOwCj_-46" value="February" style="shape=partialRectangle;overflow=hidden;connectable=0;fillColor=none;top=0;left=0;bottom=0;right=0;align=left;spacingLeft=6;fontStyle=1;fontColor=#BBFF00;fontSize=14;" vertex="1" parent="WlO0Pab2XGzUlibOwCj_-44">
          <mxGeometry x="80" width="100" height="30" as="geometry">
            <mxRectangle width="100" height="30" as="alternateBounds" />
          </mxGeometry>
        </mxCell>
        <mxCell id="WlO0Pab2XGzUlibOwCj_-47" value="Fahrenheit 70" style="shape=partialRectangle;overflow=hidden;connectable=0;fillColor=none;top=0;left=0;bottom=0;right=0;align=left;spacingLeft=6;fontStyle=1;fontColor=#BBFF00;fontSize=14;" vertex="1" parent="WlO0Pab2XGzUlibOwCj_-44">
          <mxGeometry x="180" width="110" height="30" as="geometry">
            <mxRectangle width="110" height="30" as="alternateBounds" />
          </mxGeometry>
        </mxCell>
        <mxCell id="WlO0Pab2XGzUlibOwCj_-48" value="19 %" style="shape=partialRectangle;overflow=hidden;connectable=0;fillColor=none;top=0;left=0;bottom=0;right=0;align=left;spacingLeft=6;fontStyle=1;fontColor=#BBFF00;fontSize=14;" vertex="1" parent="WlO0Pab2XGzUlibOwCj_-44">
          <mxGeometry x="290" width="100" height="30" as="geometry">
            <mxRectangle width="100" height="30" as="alternateBounds" />
          </mxGeometry>
        </mxCell>
        <mxCell id="WlO0Pab2XGzUlibOwCj_-49" style="shape=partialRectangle;collapsible=0;dropTarget=0;pointerEvents=0;fillColor=none;points=[[0,0.5],[1,0.5]];portConstraint=eastwest;top=0;left=0;right=0;bottom=0;fontStyle=1;fontColor=#BBFF00;fontSize=14;" vertex="1" parent="WlO0Pab2XGzUlibOwCj_-33">
          <mxGeometry y="130" width="390" height="30" as="geometry" />
        </mxCell>
        <mxCell id="WlO0Pab2XGzUlibOwCj_-50" value="MA" style="shape=partialRectangle;overflow=hidden;connectable=0;fillColor=none;top=0;left=0;bottom=0;right=0;fontStyle=1;fontColor=#BBFF00;fontSize=14;" vertex="1" parent="WlO0Pab2XGzUlibOwCj_-49">
          <mxGeometry width="80" height="30" as="geometry">
            <mxRectangle width="80" height="30" as="alternateBounds" />
          </mxGeometry>
        </mxCell>
        <mxCell id="WlO0Pab2XGzUlibOwCj_-51" value="March" style="shape=partialRectangle;overflow=hidden;connectable=0;fillColor=none;top=0;left=0;bottom=0;right=0;align=left;spacingLeft=6;fontStyle=1;fontColor=#BBFF00;fontSize=14;" vertex="1" parent="WlO0Pab2XGzUlibOwCj_-49">
          <mxGeometry x="80" width="100" height="30" as="geometry">
            <mxRectangle width="100" height="30" as="alternateBounds" />
          </mxGeometry>
        </mxCell>
        <mxCell id="WlO0Pab2XGzUlibOwCj_-52" value="Fahrenheit 80" style="shape=partialRectangle;overflow=hidden;connectable=0;fillColor=none;top=0;left=0;bottom=0;right=0;align=left;spacingLeft=6;fontStyle=1;fontColor=#BBFF00;fontSize=14;" vertex="1" parent="WlO0Pab2XGzUlibOwCj_-49">
          <mxGeometry x="180" width="110" height="30" as="geometry">
            <mxRectangle width="110" height="30" as="alternateBounds" />
          </mxGeometry>
        </mxCell>
        <mxCell id="WlO0Pab2XGzUlibOwCj_-53" value="25%" style="shape=partialRectangle;overflow=hidden;connectable=0;fillColor=none;top=0;left=0;bottom=0;right=0;align=left;spacingLeft=6;fontStyle=1;fontColor=#BBFF00;fontSize=14;" vertex="1" parent="WlO0Pab2XGzUlibOwCj_-49">
          <mxGeometry x="290" width="100" height="30" as="geometry">
            <mxRectangle width="100" height="30" as="alternateBounds" />
          </mxGeometry>
        </mxCell>
        <mxCell id="WlO0Pab2XGzUlibOwCj_-54" style="shape=partialRectangle;collapsible=0;dropTarget=0;pointerEvents=0;fillColor=none;points=[[0,0.5],[1,0.5]];portConstraint=eastwest;top=0;left=0;right=0;bottom=0;fontStyle=1;fontColor=#BBFF00;fontSize=14;" vertex="1" parent="WlO0Pab2XGzUlibOwCj_-33">
          <mxGeometry y="160" width="390" height="30" as="geometry" />
        </mxCell>
        <mxCell id="WlO0Pab2XGzUlibOwCj_-55" value="AP" style="shape=partialRectangle;overflow=hidden;connectable=0;fillColor=none;top=0;left=0;bottom=0;right=0;fontStyle=1;fontColor=#BBFF00;fontSize=14;" vertex="1" parent="WlO0Pab2XGzUlibOwCj_-54">
          <mxGeometry width="80" height="30" as="geometry">
            <mxRectangle width="80" height="30" as="alternateBounds" />
          </mxGeometry>
        </mxCell>
        <mxCell id="WlO0Pab2XGzUlibOwCj_-56" value="April" style="shape=partialRectangle;overflow=hidden;connectable=0;fillColor=none;top=0;left=0;bottom=0;right=0;align=left;spacingLeft=6;fontStyle=1;fontColor=#BBFF00;fontSize=14;" vertex="1" parent="WlO0Pab2XGzUlibOwCj_-54">
          <mxGeometry x="80" width="100" height="30" as="geometry">
            <mxRectangle width="100" height="30" as="alternateBounds" />
          </mxGeometry>
        </mxCell>
        <mxCell id="WlO0Pab2XGzUlibOwCj_-57" value="Fahrenheit 93" style="shape=partialRectangle;overflow=hidden;connectable=0;fillColor=none;top=0;left=0;bottom=0;right=0;align=left;spacingLeft=6;fontStyle=1;fontColor=#BBFF00;fontSize=14;" vertex="1" parent="WlO0Pab2XGzUlibOwCj_-54">
          <mxGeometry x="180" width="110" height="30" as="geometry">
            <mxRectangle width="110" height="30" as="alternateBounds" />
          </mxGeometry>
        </mxCell>
        <mxCell id="WlO0Pab2XGzUlibOwCj_-58" value="20%" style="shape=partialRectangle;overflow=hidden;connectable=0;fillColor=none;top=0;left=0;bottom=0;right=0;align=left;spacingLeft=6;fontStyle=1;fontColor=#BBFF00;fontSize=14;" vertex="1" parent="WlO0Pab2XGzUlibOwCj_-54">
          <mxGeometry x="290" width="100" height="30" as="geometry">
            <mxRectangle width="100" height="30" as="alternateBounds" />
          </mxGeometry>
        </mxCell>
        <mxCell id="WlO0Pab2XGzUlibOwCj_-59" style="shape=partialRectangle;collapsible=0;dropTarget=0;pointerEvents=0;fillColor=none;points=[[0,0.5],[1,0.5]];portConstraint=eastwest;top=0;left=0;right=0;bottom=0;fontStyle=1;fontColor=#BBFF00;fontSize=14;" vertex="1" parent="WlO0Pab2XGzUlibOwCj_-33">
          <mxGeometry y="190" width="390" height="30" as="geometry" />
        </mxCell>
        <mxCell id="WlO0Pab2XGzUlibOwCj_-60" value="MA" style="shape=partialRectangle;overflow=hidden;connectable=0;fillColor=none;top=0;left=0;bottom=0;right=0;fontStyle=1;fontColor=#BBFF00;fontSize=14;" vertex="1" parent="WlO0Pab2XGzUlibOwCj_-59">
          <mxGeometry width="80" height="30" as="geometry">
            <mxRectangle width="80" height="30" as="alternateBounds" />
          </mxGeometry>
        </mxCell>
        <mxCell id="WlO0Pab2XGzUlibOwCj_-61" value="May" style="shape=partialRectangle;overflow=hidden;connectable=0;fillColor=none;top=0;left=0;bottom=0;right=0;align=left;spacingLeft=6;fontStyle=1;fontColor=#BBFF00;fontSize=14;" vertex="1" parent="WlO0Pab2XGzUlibOwCj_-59">
          <mxGeometry x="80" width="100" height="30" as="geometry">
            <mxRectangle width="100" height="30" as="alternateBounds" />
          </mxGeometry>
        </mxCell>
        <mxCell id="WlO0Pab2XGzUlibOwCj_-62" value="Fahrenheit 70" style="shape=partialRectangle;overflow=hidden;connectable=0;fillColor=none;top=0;left=0;bottom=0;right=0;align=left;spacingLeft=6;fontStyle=1;fontColor=#BBFF00;fontSize=14;" vertex="1" parent="WlO0Pab2XGzUlibOwCj_-59">
          <mxGeometry x="180" width="110" height="30" as="geometry">
            <mxRectangle width="110" height="30" as="alternateBounds" />
          </mxGeometry>
        </mxCell>
        <mxCell id="WlO0Pab2XGzUlibOwCj_-63" value="14%" style="shape=partialRectangle;overflow=hidden;connectable=0;fillColor=none;top=0;left=0;bottom=0;right=0;align=left;spacingLeft=6;fontStyle=1;fontColor=#BBFF00;fontSize=14;" vertex="1" parent="WlO0Pab2XGzUlibOwCj_-59">
          <mxGeometry x="290" width="100" height="30" as="geometry">
            <mxRectangle width="100" height="30" as="alternateBounds" />
          </mxGeometry>
        </mxCell>
        <mxCell id="WlO0Pab2XGzUlibOwCj_-64" value="" style="curved=1;endArrow=classic;html=1;rounded=0;entryX=-0.005;entryY=0.062;entryDx=0;entryDy=0;entryPerimeter=0;exitX=-0.005;exitY=0.127;exitDx=0;exitDy=0;exitPerimeter=0;" edge="1" parent="1" source="C-vyLk0tnHw3VtMMgP7b-23" target="WlO0Pab2XGzUlibOwCj_-33">
          <mxGeometry width="50" height="50" relative="1" as="geometry">
            <mxPoint x="-410" y="80" as="sourcePoint" />
            <mxPoint x="230" y="650" as="targetPoint" />
            <Array as="points">
              <mxPoint x="-580" y="360" />
              <mxPoint x="160" y="520" />
            </Array>
          </mxGeometry>
        </mxCell>
        <mxCell id="WlO0Pab2XGzUlibOwCj_-65" value="Food" style="shape=table;startSize=30;container=1;collapsible=1;childLayout=tableLayout;fixedRows=1;rowLines=0;fontStyle=1;align=center;resizeLast=1;fontColor=#BBFF00;fontSize=14;" vertex="1" parent="1">
          <mxGeometry x="860" y="140" width="540" height="220" as="geometry" />
        </mxCell>
        <mxCell id="WlO0Pab2XGzUlibOwCj_-66" value="" style="shape=partialRectangle;collapsible=0;dropTarget=0;pointerEvents=0;fillColor=none;points=[[0,0.5],[1,0.5]];portConstraint=eastwest;top=0;left=0;right=0;bottom=1;fontStyle=1;fontColor=#BBFF00;fontSize=14;" vertex="1" parent="WlO0Pab2XGzUlibOwCj_-65">
          <mxGeometry y="30" width="540" height="30" as="geometry" />
        </mxCell>
        <mxCell id="WlO0Pab2XGzUlibOwCj_-67" value="FoodID" style="shape=partialRectangle;overflow=hidden;connectable=0;fillColor=none;top=0;left=0;bottom=0;right=0;fontStyle=1;fontColor=#BBFF00;fontSize=14;" vertex="1" parent="WlO0Pab2XGzUlibOwCj_-66">
          <mxGeometry width="90" height="30" as="geometry">
            <mxRectangle width="90" height="30" as="alternateBounds" />
          </mxGeometry>
        </mxCell>
        <mxCell id="WlO0Pab2XGzUlibOwCj_-68" value="Namr" style="shape=partialRectangle;overflow=hidden;connectable=0;fillColor=none;top=0;left=0;bottom=0;right=0;align=center;spacingLeft=6;fontStyle=5;fontColor=#BBFF00;fontSize=14;" vertex="1" parent="WlO0Pab2XGzUlibOwCj_-66">
          <mxGeometry x="90" width="120" height="30" as="geometry">
            <mxRectangle width="120" height="30" as="alternateBounds" />
          </mxGeometry>
        </mxCell>
        <mxCell id="WlO0Pab2XGzUlibOwCj_-69" value="Type" style="shape=partialRectangle;overflow=hidden;connectable=0;fillColor=none;top=0;left=0;bottom=0;right=0;align=center;spacingLeft=6;fontStyle=5;fontColor=#BBFF00;fontSize=14;" vertex="1" parent="WlO0Pab2XGzUlibOwCj_-66">
          <mxGeometry x="210" width="170" height="30" as="geometry">
            <mxRectangle width="170" height="30" as="alternateBounds" />
          </mxGeometry>
        </mxCell>
        <mxCell id="WlO0Pab2XGzUlibOwCj_-70" value="Price" style="shape=partialRectangle;overflow=hidden;connectable=0;fillColor=none;top=0;left=0;bottom=0;right=0;align=center;spacingLeft=6;fontStyle=5;fontColor=#BBFF00;fontSize=14;" vertex="1" parent="WlO0Pab2XGzUlibOwCj_-66">
          <mxGeometry x="380" width="160" height="30" as="geometry">
            <mxRectangle width="160" height="30" as="alternateBounds" />
          </mxGeometry>
        </mxCell>
        <mxCell id="WlO0Pab2XGzUlibOwCj_-71" value="" style="shape=partialRectangle;collapsible=0;dropTarget=0;pointerEvents=0;fillColor=none;points=[[0,0.5],[1,0.5]];portConstraint=eastwest;top=0;left=0;right=0;bottom=0;fontStyle=1;fontColor=#BBFF00;fontSize=14;" vertex="1" parent="WlO0Pab2XGzUlibOwCj_-65">
          <mxGeometry y="60" width="540" height="40" as="geometry" />
        </mxCell>
        <mxCell id="WlO0Pab2XGzUlibOwCj_-72" value="JA" style="shape=partialRectangle;overflow=hidden;connectable=0;fillColor=none;top=0;left=0;bottom=0;right=0;fontStyle=1;fontColor=#BBFF00;fontSize=14;" vertex="1" parent="WlO0Pab2XGzUlibOwCj_-71">
          <mxGeometry width="90" height="40" as="geometry">
            <mxRectangle width="90" height="40" as="alternateBounds" />
          </mxGeometry>
        </mxCell>
        <mxCell id="WlO0Pab2XGzUlibOwCj_-73" value="January" style="shape=partialRectangle;overflow=hidden;connectable=0;fillColor=none;top=0;left=0;bottom=0;right=0;align=left;spacingLeft=6;fontStyle=1;fontColor=#BBFF00;fontSize=14;" vertex="1" parent="WlO0Pab2XGzUlibOwCj_-71">
          <mxGeometry x="90" width="120" height="40" as="geometry">
            <mxRectangle width="120" height="40" as="alternateBounds" />
          </mxGeometry>
        </mxCell>
        <mxCell id="WlO0Pab2XGzUlibOwCj_-74" value="Fahrenheit 85" style="shape=partialRectangle;overflow=hidden;connectable=0;fillColor=none;top=0;left=0;bottom=0;right=0;align=left;spacingLeft=6;fontStyle=1;fontColor=#BBFF00;fontSize=14;" vertex="1" parent="WlO0Pab2XGzUlibOwCj_-71">
          <mxGeometry x="210" width="170" height="40" as="geometry">
            <mxRectangle width="170" height="40" as="alternateBounds" />
          </mxGeometry>
        </mxCell>
        <mxCell id="WlO0Pab2XGzUlibOwCj_-75" value="10%" style="shape=partialRectangle;overflow=hidden;connectable=0;fillColor=none;top=0;left=0;bottom=0;right=0;align=left;spacingLeft=6;fontStyle=1;fontColor=#BBFF00;fontSize=14;" vertex="1" parent="WlO0Pab2XGzUlibOwCj_-71">
          <mxGeometry x="380" width="160" height="40" as="geometry">
            <mxRectangle width="160" height="40" as="alternateBounds" />
          </mxGeometry>
        </mxCell>
        <mxCell id="WlO0Pab2XGzUlibOwCj_-76" style="shape=partialRectangle;collapsible=0;dropTarget=0;pointerEvents=0;fillColor=none;points=[[0,0.5],[1,0.5]];portConstraint=eastwest;top=0;left=0;right=0;bottom=0;fontStyle=1;fontColor=#BBFF00;fontSize=14;" vertex="1" parent="WlO0Pab2XGzUlibOwCj_-65">
          <mxGeometry y="100" width="540" height="30" as="geometry" />
        </mxCell>
        <mxCell id="WlO0Pab2XGzUlibOwCj_-77" value="FE" style="shape=partialRectangle;overflow=hidden;connectable=0;fillColor=none;top=0;left=0;bottom=0;right=0;fontStyle=1;fontColor=#BBFF00;fontSize=14;" vertex="1" parent="WlO0Pab2XGzUlibOwCj_-76">
          <mxGeometry width="90" height="30" as="geometry">
            <mxRectangle width="90" height="30" as="alternateBounds" />
          </mxGeometry>
        </mxCell>
        <mxCell id="WlO0Pab2XGzUlibOwCj_-78" value="February" style="shape=partialRectangle;overflow=hidden;connectable=0;fillColor=none;top=0;left=0;bottom=0;right=0;align=left;spacingLeft=6;fontStyle=1;fontColor=#BBFF00;fontSize=14;" vertex="1" parent="WlO0Pab2XGzUlibOwCj_-76">
          <mxGeometry x="90" width="120" height="30" as="geometry">
            <mxRectangle width="120" height="30" as="alternateBounds" />
          </mxGeometry>
        </mxCell>
        <mxCell id="WlO0Pab2XGzUlibOwCj_-79" value="Fahrenheit 70" style="shape=partialRectangle;overflow=hidden;connectable=0;fillColor=none;top=0;left=0;bottom=0;right=0;align=left;spacingLeft=6;fontStyle=1;fontColor=#BBFF00;fontSize=14;" vertex="1" parent="WlO0Pab2XGzUlibOwCj_-76">
          <mxGeometry x="210" width="170" height="30" as="geometry">
            <mxRectangle width="170" height="30" as="alternateBounds" />
          </mxGeometry>
        </mxCell>
        <mxCell id="WlO0Pab2XGzUlibOwCj_-80" value="19 %" style="shape=partialRectangle;overflow=hidden;connectable=0;fillColor=none;top=0;left=0;bottom=0;right=0;align=left;spacingLeft=6;fontStyle=1;fontColor=#BBFF00;fontSize=14;" vertex="1" parent="WlO0Pab2XGzUlibOwCj_-76">
          <mxGeometry x="380" width="160" height="30" as="geometry">
            <mxRectangle width="160" height="30" as="alternateBounds" />
          </mxGeometry>
        </mxCell>
        <mxCell id="WlO0Pab2XGzUlibOwCj_-81" style="shape=partialRectangle;collapsible=0;dropTarget=0;pointerEvents=0;fillColor=none;points=[[0,0.5],[1,0.5]];portConstraint=eastwest;top=0;left=0;right=0;bottom=0;fontStyle=1;fontColor=#BBFF00;fontSize=14;" vertex="1" parent="WlO0Pab2XGzUlibOwCj_-65">
          <mxGeometry y="130" width="540" height="30" as="geometry" />
        </mxCell>
        <mxCell id="WlO0Pab2XGzUlibOwCj_-82" value="MA" style="shape=partialRectangle;overflow=hidden;connectable=0;fillColor=none;top=0;left=0;bottom=0;right=0;fontStyle=1;fontColor=#BBFF00;fontSize=14;" vertex="1" parent="WlO0Pab2XGzUlibOwCj_-81">
          <mxGeometry width="90" height="30" as="geometry">
            <mxRectangle width="90" height="30" as="alternateBounds" />
          </mxGeometry>
        </mxCell>
        <mxCell id="WlO0Pab2XGzUlibOwCj_-83" value="March" style="shape=partialRectangle;overflow=hidden;connectable=0;fillColor=none;top=0;left=0;bottom=0;right=0;align=left;spacingLeft=6;fontStyle=1;fontColor=#BBFF00;fontSize=14;" vertex="1" parent="WlO0Pab2XGzUlibOwCj_-81">
          <mxGeometry x="90" width="120" height="30" as="geometry">
            <mxRectangle width="120" height="30" as="alternateBounds" />
          </mxGeometry>
        </mxCell>
        <mxCell id="WlO0Pab2XGzUlibOwCj_-84" value="Fahrenheit 80" style="shape=partialRectangle;overflow=hidden;connectable=0;fillColor=none;top=0;left=0;bottom=0;right=0;align=left;spacingLeft=6;fontStyle=1;fontColor=#BBFF00;fontSize=14;" vertex="1" parent="WlO0Pab2XGzUlibOwCj_-81">
          <mxGeometry x="210" width="170" height="30" as="geometry">
            <mxRectangle width="170" height="30" as="alternateBounds" />
          </mxGeometry>
        </mxCell>
        <mxCell id="WlO0Pab2XGzUlibOwCj_-85" value="25%" style="shape=partialRectangle;overflow=hidden;connectable=0;fillColor=none;top=0;left=0;bottom=0;right=0;align=left;spacingLeft=6;fontStyle=1;fontColor=#BBFF00;fontSize=14;" vertex="1" parent="WlO0Pab2XGzUlibOwCj_-81">
          <mxGeometry x="380" width="160" height="30" as="geometry">
            <mxRectangle width="160" height="30" as="alternateBounds" />
          </mxGeometry>
        </mxCell>
        <mxCell id="WlO0Pab2XGzUlibOwCj_-86" style="shape=partialRectangle;collapsible=0;dropTarget=0;pointerEvents=0;fillColor=none;points=[[0,0.5],[1,0.5]];portConstraint=eastwest;top=0;left=0;right=0;bottom=0;fontStyle=1;fontColor=#BBFF00;fontSize=14;" vertex="1" parent="WlO0Pab2XGzUlibOwCj_-65">
          <mxGeometry y="160" width="540" height="30" as="geometry" />
        </mxCell>
        <mxCell id="WlO0Pab2XGzUlibOwCj_-87" value="AP" style="shape=partialRectangle;overflow=hidden;connectable=0;fillColor=none;top=0;left=0;bottom=0;right=0;fontStyle=1;fontColor=#BBFF00;fontSize=14;" vertex="1" parent="WlO0Pab2XGzUlibOwCj_-86">
          <mxGeometry width="90" height="30" as="geometry">
            <mxRectangle width="90" height="30" as="alternateBounds" />
          </mxGeometry>
        </mxCell>
        <mxCell id="WlO0Pab2XGzUlibOwCj_-88" value="April" style="shape=partialRectangle;overflow=hidden;connectable=0;fillColor=none;top=0;left=0;bottom=0;right=0;align=left;spacingLeft=6;fontStyle=1;fontColor=#BBFF00;fontSize=14;" vertex="1" parent="WlO0Pab2XGzUlibOwCj_-86">
          <mxGeometry x="90" width="120" height="30" as="geometry">
            <mxRectangle width="120" height="30" as="alternateBounds" />
          </mxGeometry>
        </mxCell>
        <mxCell id="WlO0Pab2XGzUlibOwCj_-89" value="Fahrenheit 93" style="shape=partialRectangle;overflow=hidden;connectable=0;fillColor=none;top=0;left=0;bottom=0;right=0;align=left;spacingLeft=6;fontStyle=1;fontColor=#BBFF00;fontSize=14;" vertex="1" parent="WlO0Pab2XGzUlibOwCj_-86">
          <mxGeometry x="210" width="170" height="30" as="geometry">
            <mxRectangle width="170" height="30" as="alternateBounds" />
          </mxGeometry>
        </mxCell>
        <mxCell id="WlO0Pab2XGzUlibOwCj_-90" value="20%" style="shape=partialRectangle;overflow=hidden;connectable=0;fillColor=none;top=0;left=0;bottom=0;right=0;align=left;spacingLeft=6;fontStyle=1;fontColor=#BBFF00;fontSize=14;" vertex="1" parent="WlO0Pab2XGzUlibOwCj_-86">
          <mxGeometry x="380" width="160" height="30" as="geometry">
            <mxRectangle width="160" height="30" as="alternateBounds" />
          </mxGeometry>
        </mxCell>
        <mxCell id="WlO0Pab2XGzUlibOwCj_-91" style="shape=partialRectangle;collapsible=0;dropTarget=0;pointerEvents=0;fillColor=none;points=[[0,0.5],[1,0.5]];portConstraint=eastwest;top=0;left=0;right=0;bottom=0;fontStyle=1;fontColor=#BBFF00;fontSize=14;" vertex="1" parent="WlO0Pab2XGzUlibOwCj_-65">
          <mxGeometry y="190" width="540" height="30" as="geometry" />
        </mxCell>
        <mxCell id="WlO0Pab2XGzUlibOwCj_-92" value="MA" style="shape=partialRectangle;overflow=hidden;connectable=0;fillColor=none;top=0;left=0;bottom=0;right=0;fontStyle=1;fontColor=#BBFF00;fontSize=14;" vertex="1" parent="WlO0Pab2XGzUlibOwCj_-91">
          <mxGeometry width="90" height="30" as="geometry">
            <mxRectangle width="90" height="30" as="alternateBounds" />
          </mxGeometry>
        </mxCell>
        <mxCell id="WlO0Pab2XGzUlibOwCj_-93" value="May" style="shape=partialRectangle;overflow=hidden;connectable=0;fillColor=none;top=0;left=0;bottom=0;right=0;align=left;spacingLeft=6;fontStyle=1;fontColor=#BBFF00;fontSize=14;" vertex="1" parent="WlO0Pab2XGzUlibOwCj_-91">
          <mxGeometry x="90" width="120" height="30" as="geometry">
            <mxRectangle width="120" height="30" as="alternateBounds" />
          </mxGeometry>
        </mxCell>
        <mxCell id="WlO0Pab2XGzUlibOwCj_-94" value="Fahrenheit 70" style="shape=partialRectangle;overflow=hidden;connectable=0;fillColor=none;top=0;left=0;bottom=0;right=0;align=left;spacingLeft=6;fontStyle=1;fontColor=#BBFF00;fontSize=14;" vertex="1" parent="WlO0Pab2XGzUlibOwCj_-91">
          <mxGeometry x="210" width="170" height="30" as="geometry">
            <mxRectangle width="170" height="30" as="alternateBounds" />
          </mxGeometry>
        </mxCell>
        <mxCell id="WlO0Pab2XGzUlibOwCj_-95" value="14%" style="shape=partialRectangle;overflow=hidden;connectable=0;fillColor=none;top=0;left=0;bottom=0;right=0;align=left;spacingLeft=6;fontStyle=1;fontColor=#BBFF00;fontSize=14;" vertex="1" parent="WlO0Pab2XGzUlibOwCj_-91">
          <mxGeometry x="380" width="160" height="30" as="geometry">
            <mxRectangle width="160" height="30" as="alternateBounds" />
          </mxGeometry>
        </mxCell>
      </root>
    </mxGraphModel>
  </diagram>
</mxfile>
